<?xml version="1.0" standalone="no"?>
<!DOCTYPE svg PUBLIC "-//W3C//DTD SVG 20010904//EN"
 "http://www.w3.org/TR/2001/REC-SVG-20010904/DTD/svg10.dtd">
<svg version="1.0" xmlns="http://www.w3.org/2000/svg"
 width="90.000000pt" height="90.000000pt" viewBox="0 0 90.000000 90.000000"
 preserveAspectRatio="xMidYMid meet">
<metadata>
Created by potrace 1.14, written by Peter Selinger 2001-2017
</metadata>
<g transform="translate(0.000000,90.000000) scale(0.100000,-0.100000)"
fill="#000000" stroke="none">
<path d="M567 803 c-4 -3 -7 -15 -7 -25 0 -14 8 -18 35 -18 l35 0 0 -186 0
-186 27 7 c51 12 53 19 53 156 0 127 -2 135 -32 130 -5 0 -8 23 -8 52 0 48 -3
55 -25 65 -29 13 -68 16 -78 5z"/>
<path d="M478 783 c-15 -4 -17 -13 -12 -63 3 -32 6 -92 7 -133 1 -42 5 -73 8
-69 17 19 62 182 60 217 -3 50 -16 60 -63 48z"/>
<path d="M270 763 c0 -5 19 -8 41 -8 l42 0 49 -150 c27 -82 51 -151 53 -154
10 -10 22 45 13 56 -10 13 -43 126 -58 197 -4 22 -16 46 -26 53 -19 14 -114
18 -114 6z"/>
<path d="M271 714 c0 -11 3 -14 6 -6 3 7 2 16 -1 19 -3 4 -6 -2 -5 -13z"/>
<path d="M324 538 l2 -153 29 2 c80 6 78 -3 24 155 -27 78 -51 143 -52 145 -2
2 -3 -66 -3 -149z"/>
<path d="M562 635 c-7 -25 -12 -54 -12 -66 0 -11 -4 -18 -8 -15 -5 3 -19 -27
-32 -67 -12 -40 -25 -78 -28 -85 -3 -10 3 -13 24 -10 23 2 30 9 32 31 4 33 22
26 22 -8 0 -22 19 -47 21 -28 5 30 3 293 -1 293 -3 0 -11 -20 -18 -45z m-8
-110 c3 -8 1 -15 -4 -15 -6 0 -10 7 -10 15 0 8 2 15 4 15 2 0 6 -7 10 -15z
m-7 -57 c-3 -7 -5 -2 -5 12 0 14 2 19 5 13 2 -7 2 -19 0 -25z"/>
<path d="M227 633 l-28 -4 3 -96 c2 -60 7 -98 14 -100 8 -3 11 22 10 82 -1 47
0 88 4 90 3 2 6 -30 5 -71 -1 -65 2 -79 21 -99 l22 -24 0 115 c-1 77 -5 114
-12 113 -6 -1 -24 -4 -39 -6z"/>
<path d="M10 285 c0 -61 13 -87 23 -47 4 16 5 16 6 0 2 -26 19 -22 24 5 l4 22
2 -22 c0 -13 6 -23 11 -23 6 0 10 28 10 65 0 51 -3 65 -15 65 -10 0 -15 -11
-16 -37 l-1 -38 -10 38 c-17 63 -38 47 -38 -28z"/>
<path d="M119 343 c0 -5 -2 -16 -4 -25 -11 -59 -13 -98 -5 -98 6 0 10 5 10 10
0 6 7 10 15 10 8 0 15 -4 15 -10 0 -5 4 -10 10 -10 8 0 6 39 -5 98 -2 9 -4 20
-4 25 -1 4 -8 7 -16 7 -8 0 -15 -3 -16 -7z m18 -75 c-3 -7 -5 -2 -5 12 0 14 2
19 5 13 2 -7 2 -19 0 -25z"/>
<path d="M179 318 c-6 -47 1 -98 12 -98 5 0 9 10 10 23 l0 22 11 -22 c9 -18
20 -23 50 -23 21 0 38 5 38 10 0 6 -7 10 -15 10 -21 0 -19 30 3 30 16 1 16 1
0 14 -29 22 -23 46 12 46 30 0 30 -1 30 -55 0 -30 5 -55 10 -55 6 0 10 25 10
55 0 30 5 55 10 55 6 0 10 5 10 10 0 6 -31 10 -73 10 -67 0 -75 -2 -85 -22
l-11 -23 0 23 c-1 34 -18 26 -22 -10z m70 -35 l0 -58 -16 32 c-13 26 -14 38
-5 58 17 38 22 31 21 -32z"/>
<path d="M414 342 c-21 -14 -23 -41 -3 -63 10 -12 19 -27 19 -33 0 -6 -4 -4
-10 4 -11 18 -25 6 -16 -15 8 -22 50 -15 54 9 2 10 -6 32 -18 48 -12 16 -19
32 -15 36 3 4 10 0 15 -8 11 -18 25 -6 17 15 -7 16 -25 19 -43 7z"/>
<path d="M470 340 c0 -5 5 -10 10 -10 6 0 10 -25 10 -55 0 -30 5 -55 10 -55 6
0 10 25 10 55 0 30 5 55 10 55 6 0 10 -19 10 -42 0 -52 11 -71 36 -66 16 3 19
12 19 63 l0 60 -57 3 c-34 1 -58 -2 -58 -8z m100 -55 c0 -25 -4 -45 -10 -45
-5 0 -10 20 -10 45 0 25 5 45 10 45 6 0 10 -20 10 -45z"/>
<path d="M600 286 c0 -37 4 -66 10 -66 6 0 10 11 10 25 0 14 5 25 10 25 6 0
10 -11 10 -25 0 -14 4 -25 10 -25 6 0 9 26 7 63 -2 60 -3 62 -29 65 l-28 3 0
-65z m40 24 c0 -11 -4 -20 -10 -20 -5 0 -10 9 -10 20 0 11 5 20 10 20 6 0 10
-9 10 -20z"/>
<path d="M670 285 l0 -65 30 0 c17 0 30 5 30 10 0 6 -9 10 -20 10 -11 0 -20 7
-20 15 0 8 7 15 15 15 8 0 15 5 15 10 0 6 -7 10 -15 10 -8 0 -15 9 -15 20 0
13 7 20 20 20 11 0 20 5 20 10 0 6 -13 10 -30 10 l-30 0 0 -65z"/>
<path d="M740 285 c0 -37 4 -65 10 -65 6 0 10 19 10 43 l0 42 20 -42 c26 -59
40 -54 40 12 0 42 3 55 15 55 12 0 15 -13 15 -56 0 -40 3 -54 13 -51 8 2 11
22 10 55 -1 39 3 52 13 52 8 0 14 5 14 10 0 6 -22 10 -50 10 l-50 0 0 -37 -1
-38 -20 38 c-11 20 -24 37 -29 37 -6 0 -10 -29 -10 -65z"/>
<path d="M1 143 c1 -39 2 -43 9 -23 8 24 8 24 9 3 1 -13 6 -23 12 -23 6 0 9 9
6 20 -3 11 -1 18 4 14 5 -3 9 -12 9 -20 0 -17 12 -18 29 -1 11 10 14 10 18 0
7 -19 23 -16 23 5 1 15 2 15 15 -2 11 -15 15 -16 15 -5 0 8 -5 20 -10 25 -7 7
-5 17 5 30 13 18 14 16 15 -23 0 -34 4 -43 18 -42 10 0 12 3 5 6 -7 2 -13 11
-13 18 0 7 6 16 13 18 10 4 10 6 0 6 -25 2 -13 31 11 31 22 0 25 -5 28 -42 l3
-43 5 48 5 47 -44 0 c-30 0 -48 -6 -57 -17 -13 -17 -13 -17 -15 2 -1 11 -5 4
-9 -15 l-7 -35 -2 33 c-2 45 -18 40 -29 -10 l-10 -43 -1 38 c-1 34 -21 56 -21
22 0 -8 -4 -15 -10 -15 -5 0 -10 9 -10 20 0 11 -4 20 -10 20 -5 0 -10 -21 -9
-47z m86 -5 c-3 -8 -6 -5 -6 6 -1 11 2 17 5 13 3 -3 4 -12 1 -19z"/>
<path d="M253 145 c0 -27 2 -40 4 -27 5 27 23 29 23 2 0 -23 10 -26 28 -8 10
10 15 10 23 -2 8 -12 9 -9 5 10 -3 14 -6 35 -6 48 0 37 -18 25 -28 -20 l-10
-43 -2 45 c-2 25 -5 35 -7 23 -2 -13 -8 -23 -13 -23 -5 0 -11 10 -13 23 -2 12
-4 0 -4 -28z m64 -7 c-3 -8 -6 -5 -6 6 -1 11 2 17 5 13 3 -3 4 -12 1 -19z"/>
<path d="M351 143 c1 -27 3 -40 6 -30 2 9 8 17 13 17 5 0 11 -8 13 -17 3 -10
5 3 6 30 1 41 -2 47 -19 47 -17 0 -20 -6 -19 -47z m29 17 c0 -11 -4 -20 -10
-20 -5 0 -10 9 -10 20 0 11 5 20 10 20 6 0 10 -9 10 -20z"/>
<path d="M430 147 c0 -32 4 -44 15 -44 8 0 15 5 15 11 0 6 4 5 9 -3 8 -13 12
-13 26 -1 14 12 18 12 27 -1 7 -10 8 -8 4 11 -3 14 -6 35 -6 48 0 37 -18 25
-28 -20 l-10 -43 -1 38 c-1 42 -21 51 -22 10 -1 -27 -1 -27 -10 5 -13 44 -19
40 -19 -11z m77 -9 c-3 -8 -6 -5 -6 6 -1 11 2 17 5 13 3 -3 4 -12 1 -19z"/>
<path d="M540 143 c0 -37 3 -44 17 -41 10 2 18 10 19 18 0 9 -1 10 -3 3 -9
-26 -23 -12 -23 22 0 34 13 47 23 23 4 -10 6 -10 6 0 1 6 5 12 10 12 6 0 12
-19 14 -42 l4 -43 1 43 c2 53 22 56 22 2 0 -36 3 -40 25 -40 15 0 25 6 25 14
0 8 7 16 15 20 10 4 15 -1 15 -14 0 -15 6 -19 25 -18 15 2 25 9 25 18 1 12 4
11 15 -4 13 -17 15 -17 15 -4 0 9 -5 20 -10 23 -7 4 -7 12 0 25 15 28 12 37
-5 14 -11 -15 -14 -16 -15 -4 0 12 -12 16 -45 17 l-45 2 0 -40 c0 -28 -4 -39
-15 -39 -18 0 -20 26 -2 33 10 4 10 6 0 6 -7 1 -13 7 -13 15 0 8 6 17 13 19 6
3 -16 5 -50 5 l-63 -1 0 -44z m160 11 c0 -8 -4 -14 -10 -14 -5 0 -10 9 -10 21
0 11 5 17 10 14 6 -3 10 -13 10 -21z m44 10 c8 -20 -2 -54 -15 -54 -5 0 -9 16
-9 35 0 37 13 47 24 19z"/>
<path d="M820 183 c0 -5 -4 -25 -9 -46 -8 -33 -7 -36 6 -26 12 10 16 10 23 -1
5 -8 12 -11 17 -7 4 4 2 17 -5 27 -7 11 -12 29 -12 40 0 18 -20 30 -20 13z"/>
<path d="M857 183 c-11 -10 -8 -31 6 -45 8 -7 16 -20 20 -28 3 -8 6 6 6 33 1
33 -3 47 -12 47 -8 0 -17 -3 -20 -7z m23 -24 c0 -11 -4 -17 -10 -14 -5 3 -10
13 -10 21 0 8 5 14 10 14 6 0 10 -9 10 -21z"/>
</g>
</svg>
